<svg xmlns="http://www.w3.org/2000/svg" xmlns:xlink="http://www.w3.org/1999/xlink" width="500" zoomAndPan="magnify" viewBox="0 0 375 374.999991" height="500" preserveAspectRatio="xMidYMid meet" version="1.0"><defs><g/><clipPath id="fb4dd9efa2"><path d="M 34.628906 34.628906 L 340.371094 34.628906 L 340.371094 340.371094 L 34.628906 340.371094 Z M 34.628906 34.628906 " clip-rule="nonzero"/></clipPath><clipPath id="9f829a2c44"><path d="M 187.5 34.628906 C 103.070312 34.628906 34.628906 103.070312 34.628906 187.5 C 34.628906 271.929688 103.070312 340.371094 187.5 340.371094 C 271.929688 340.371094 340.371094 271.929688 340.371094 187.5 C 340.371094 103.070312 271.929688 34.628906 187.5 34.628906 Z M 187.5 34.628906 " clip-rule="nonzero"/></clipPath><clipPath id="e6bd4b1670"><path d="M 0.628906 0.628906 L 306.371094 0.628906 L 306.371094 306.371094 L 0.628906 306.371094 Z M 0.628906 0.628906 " clip-rule="nonzero"/></clipPath><clipPath id="eee9b9666e"><path d="M 153.5 0.628906 C 69.070312 0.628906 0.628906 69.070312 0.628906 153.5 C 0.628906 237.929688 69.070312 306.371094 153.5 306.371094 C 237.929688 306.371094 306.371094 237.929688 306.371094 153.5 C 306.371094 69.070312 237.929688 0.628906 153.5 0.628906 Z M 153.5 0.628906 " clip-rule="nonzero"/></clipPath><clipPath id="93dd76c3a9"><rect x="0" width="307" y="0" height="307"/></clipPath><clipPath id="3103fe244b"><path d="M 34.628906 34.628906 L 340.359375 34.628906 L 340.359375 340.359375 L 34.628906 340.359375 Z M 34.628906 34.628906 " clip-rule="nonzero"/></clipPath><clipPath id="e4ea7f86dd"><path d="M 187.496094 34.628906 C 103.070312 34.628906 34.628906 103.070312 34.628906 187.496094 C 34.628906 271.921875 103.070312 340.359375 187.496094 340.359375 C 271.921875 340.359375 340.359375 271.921875 340.359375 187.496094 C 340.359375 103.070312 271.921875 34.628906 187.496094 34.628906 Z M 187.496094 34.628906 " clip-rule="nonzero"/></clipPath><clipPath id="70cb96e780"><path d="M 138 99 L 237 99 L 237 198 L 138 198 Z M 138 99 " clip-rule="nonzero"/></clipPath><clipPath id="bcd3ece6ad"><path d="M 162.4375 87.859375 L 248.003906 123.300781 L 212.5625 208.863281 L 126.996094 173.421875 Z M 162.4375 87.859375 " clip-rule="nonzero"/></clipPath><clipPath id="529099c9e3"><path d="M 225.871094 119.875 L 234.777344 141.371094 C 236.613281 145.808594 236.613281 150.792969 234.777344 155.230469 L 225.785156 176.933594 C 223.949219 181.371094 220.425781 184.894531 215.988281 186.734375 L 194.488281 195.636719 C 190.050781 197.476562 185.066406 197.476562 180.632812 195.636719 L 158.925781 186.648438 C 154.488281 184.8125 150.964844 181.285156 149.128906 176.847656 L 140.222656 155.351562 C 138.386719 150.914062 138.386719 145.929688 140.222656 141.492188 L 149.210938 119.789062 C 151.050781 115.351562 154.574219 111.828125 159.011719 109.988281 L 180.511719 101.085938 C 184.945312 99.246094 189.933594 99.246094 194.367188 101.085938 L 216.074219 110.074219 C 220.507812 111.910156 224.035156 115.4375 225.871094 119.875 Z M 225.871094 119.875 " clip-rule="nonzero"/></clipPath><clipPath id="f10b374df0"><path d="M 0.238281 0.121094 L 98.640625 0.121094 L 98.640625 98.519531 L 0.238281 98.519531 Z M 0.238281 0.121094 " clip-rule="nonzero"/></clipPath><clipPath id="391c44ed42"><path d="M 24.4375 -11.140625 L 110.003906 24.300781 L 74.5625 109.863281 L -11.003906 74.421875 Z M 24.4375 -11.140625 " clip-rule="nonzero"/></clipPath><clipPath id="fd2fea0b6f"><path d="M 87.871094 20.875 L 96.777344 42.371094 C 98.613281 46.808594 98.613281 51.792969 96.777344 56.230469 L 87.785156 77.933594 C 85.949219 82.371094 82.425781 85.894531 77.988281 87.734375 L 56.488281 96.636719 C 52.050781 98.476562 47.066406 98.476562 42.632812 96.636719 L 20.925781 87.648438 C 16.488281 85.8125 12.964844 82.285156 11.128906 77.847656 L 2.222656 56.351562 C 0.386719 51.914062 0.386719 46.929688 2.222656 42.492188 L 11.210938 20.789062 C 13.050781 16.351562 16.574219 12.828125 21.011719 10.988281 L 42.511719 2.085938 C 46.945312 0.246094 51.933594 0.246094 56.367188 2.085938 L 78.074219 11.074219 C 82.507812 12.910156 86.035156 16.4375 87.871094 20.875 Z M 87.871094 20.875 " clip-rule="nonzero"/></clipPath><clipPath id="43ec368318"><rect x="0" width="99" y="0" height="99"/></clipPath><clipPath id="84e1e5bc32"><path d="M 138 99 L 237 99 L 237 198 L 138 198 Z M 138 99 " clip-rule="nonzero"/></clipPath><clipPath id="547ff491b8"><path d="M 162.4375 87.859375 L 247.667969 123.160156 L 212.363281 208.390625 L 127.136719 173.085938 Z M 162.4375 87.859375 " clip-rule="nonzero"/></clipPath><clipPath id="ba0b404869"><path d="M 162.4375 87.859375 L 248.003906 123.300781 L 212.5625 208.863281 L 126.996094 173.421875 Z M 162.4375 87.859375 " clip-rule="nonzero"/></clipPath><clipPath id="4e25c8d322"><path d="M 225.871094 119.875 L 234.777344 141.371094 C 236.613281 145.808594 236.613281 150.792969 234.777344 155.230469 L 225.785156 176.933594 C 223.949219 181.371094 220.421875 184.894531 215.988281 186.734375 L 194.488281 195.636719 C 190.050781 197.476562 185.066406 197.476562 180.632812 195.636719 L 158.925781 186.648438 C 154.488281 184.808594 150.964844 181.285156 149.128906 176.847656 L 140.222656 155.351562 C 138.386719 150.914062 138.386719 145.929688 140.222656 141.492188 L 149.214844 119.789062 C 151.050781 115.351562 154.574219 111.828125 159.011719 109.988281 L 180.511719 101.082031 C 184.945312 99.246094 189.933594 99.246094 194.367188 101.082031 L 216.074219 110.074219 C 220.507812 111.910156 224.035156 115.4375 225.871094 119.875 Z M 225.871094 119.875 " clip-rule="nonzero"/></clipPath><clipPath id="fccb82a0ab"><path d="M 149.203125 165.335938 L 225.796875 165.335938 L 225.796875 259.582031 L 149.203125 259.582031 Z M 149.203125 165.335938 " clip-rule="nonzero"/></clipPath><clipPath id="7cafd6497f"><path d="M 155.203125 165.335938 L 219.796875 165.335938 C 223.109375 165.335938 225.796875 168.023438 225.796875 171.335938 L 225.796875 253.503906 C 225.796875 256.816406 223.109375 259.503906 219.796875 259.503906 L 155.203125 259.503906 C 151.890625 259.503906 149.203125 256.816406 149.203125 253.503906 L 149.203125 171.335938 C 149.203125 168.023438 151.890625 165.335938 155.203125 165.335938 Z M 155.203125 165.335938 " clip-rule="nonzero"/></clipPath><clipPath id="f75f877c7e"><path d="M 0.203125 0.335938 L 76.796875 0.335938 L 76.796875 94.582031 L 0.203125 94.582031 Z M 0.203125 0.335938 " clip-rule="nonzero"/></clipPath><clipPath id="fc89bc2f04"><path d="M 6.203125 0.335938 L 70.796875 0.335938 C 74.109375 0.335938 76.796875 3.023438 76.796875 6.335938 L 76.796875 88.503906 C 76.796875 91.816406 74.109375 94.503906 70.796875 94.503906 L 6.203125 94.503906 C 2.890625 94.503906 0.203125 91.816406 0.203125 88.503906 L 0.203125 6.335938 C 0.203125 3.023438 2.890625 0.335938 6.203125 0.335938 Z M 6.203125 0.335938 " clip-rule="nonzero"/></clipPath><clipPath id="d388599310"><rect x="0" width="77" y="0" height="95"/></clipPath><clipPath id="0d207f06bb"><path d="M 149.203125 165.34375 L 225.703125 165.34375 L 225.703125 259.8125 L 149.203125 259.8125 Z M 149.203125 165.34375 " clip-rule="nonzero"/></clipPath><clipPath id="c46b64b098"><path d="M 155.203125 165.34375 L 219.785156 165.34375 C 223.097656 165.34375 225.785156 168.027344 225.785156 171.34375 L 225.785156 253.492188 C 225.785156 256.808594 223.097656 259.492188 219.785156 259.492188 L 155.203125 259.492188 C 151.890625 259.492188 149.203125 256.808594 149.203125 253.492188 L 149.203125 171.34375 C 149.203125 168.027344 151.890625 165.34375 155.203125 165.34375 Z M 155.203125 165.34375 " clip-rule="nonzero"/></clipPath><clipPath id="0c5010a664"><path d="M 155.40625 212.421875 L 219.679688 212.421875 L 219.679688 251.785156 L 155.40625 251.785156 Z M 155.40625 212.421875 " clip-rule="nonzero"/></clipPath><clipPath id="7c1f344139"><path d="M 161.40625 212.421875 L 213.59375 212.421875 C 216.910156 212.421875 219.59375 215.105469 219.59375 218.421875 L 219.59375 245.785156 C 219.59375 249.097656 216.910156 251.785156 213.59375 251.785156 L 161.40625 251.785156 C 158.089844 251.785156 155.40625 249.097656 155.40625 245.785156 L 155.40625 218.421875 C 155.40625 215.105469 158.089844 212.421875 161.40625 212.421875 Z M 161.40625 212.421875 " clip-rule="nonzero"/></clipPath><clipPath id="a7d9258323"><path d="M 0.40625 0.421875 L 64.601562 0.421875 L 64.601562 39.785156 L 0.40625 39.785156 Z M 0.40625 0.421875 " clip-rule="nonzero"/></clipPath><clipPath id="c324a7f975"><path d="M 6.40625 0.421875 L 58.59375 0.421875 C 61.910156 0.421875 64.59375 3.105469 64.59375 6.421875 L 64.59375 33.785156 C 64.59375 37.097656 61.910156 39.785156 58.59375 39.785156 L 6.40625 39.785156 C 3.089844 39.785156 0.40625 37.097656 0.40625 33.785156 L 0.40625 6.421875 C 0.40625 3.105469 3.089844 0.421875 6.40625 0.421875 Z M 6.40625 0.421875 " clip-rule="nonzero"/></clipPath><clipPath id="b696a6989d"><rect x="0" width="65" y="0" height="40"/></clipPath><clipPath id="8ac2c1c69d"><path d="M 155.40625 212.421875 L 219.90625 212.421875 L 219.90625 251.421875 L 155.40625 251.421875 Z M 155.40625 212.421875 " clip-rule="nonzero"/></clipPath><clipPath id="29c6674b4c"><path d="M 161.40625 212.421875 L 213.589844 212.421875 C 216.902344 212.421875 219.589844 215.105469 219.589844 218.421875 L 219.589844 245.78125 C 219.589844 249.097656 216.902344 251.78125 213.589844 251.78125 L 161.40625 251.78125 C 158.089844 251.78125 155.40625 249.097656 155.40625 245.78125 L 155.40625 218.421875 C 155.40625 215.105469 158.089844 212.421875 161.40625 212.421875 Z M 161.40625 212.421875 " clip-rule="nonzero"/></clipPath><clipPath id="c80fcbf7a2"><path d="M 184.324219 155.363281 L 190.675781 155.363281 L 190.675781 168.640625 L 184.324219 168.640625 Z M 184.324219 155.363281 " clip-rule="nonzero"/></clipPath><clipPath id="a3b9504d29"><path d="M 187.5 155.363281 C 189.253906 155.363281 190.675781 156.785156 190.675781 158.539062 L 190.675781 165.441406 C 190.675781 167.195312 189.253906 168.617188 187.5 168.617188 C 185.746094 168.617188 184.324219 167.195312 184.324219 165.441406 L 184.324219 158.539062 C 184.324219 156.785156 185.746094 155.363281 187.5 155.363281 Z M 187.5 155.363281 " clip-rule="nonzero"/></clipPath><clipPath id="84f4ba3b6f"><path d="M 0.324219 0.363281 L 6.675781 0.363281 L 6.675781 13.640625 L 0.324219 13.640625 Z M 0.324219 0.363281 " clip-rule="nonzero"/></clipPath><clipPath id="4826b4bd88"><path d="M 3.5 0.363281 C 5.253906 0.363281 6.675781 1.785156 6.675781 3.539062 L 6.675781 10.441406 C 6.675781 12.195312 5.253906 13.617188 3.5 13.617188 C 1.746094 13.617188 0.324219 12.195312 0.324219 10.441406 L 0.324219 3.539062 C 0.324219 1.785156 1.746094 0.363281 3.5 0.363281 Z M 3.5 0.363281 " clip-rule="nonzero"/></clipPath><clipPath id="0378170aae"><rect x="0" width="7" y="0" height="14"/></clipPath><clipPath id="da1bfe85d7"><path d="M 178.386719 137.140625 L 196.613281 137.140625 L 196.613281 155.363281 L 178.386719 155.363281 Z M 178.386719 137.140625 " clip-rule="nonzero"/></clipPath><clipPath id="4e54293906"><path d="M 187.5 137.140625 C 182.46875 137.140625 178.386719 141.21875 178.386719 146.25 C 178.386719 151.285156 182.46875 155.363281 187.5 155.363281 C 192.53125 155.363281 196.613281 151.285156 196.613281 146.25 C 196.613281 141.21875 192.53125 137.140625 187.5 137.140625 Z M 187.5 137.140625 " clip-rule="nonzero"/></clipPath><clipPath id="fc5d3247da"><path d="M 0.386719 0.140625 L 18.613281 0.140625 L 18.613281 18.363281 L 0.386719 18.363281 Z M 0.386719 0.140625 " clip-rule="nonzero"/></clipPath><clipPath id="021e6a2a53"><path d="M 9.5 0.140625 C 4.46875 0.140625 0.386719 4.21875 0.386719 9.25 C 0.386719 14.285156 4.46875 18.363281 9.5 18.363281 C 14.53125 18.363281 18.613281 14.285156 18.613281 9.25 C 18.613281 4.21875 14.53125 0.140625 9.5 0.140625 Z M 9.5 0.140625 " clip-rule="nonzero"/></clipPath><clipPath id="5f03eb6970"><rect x="0" width="19" y="0" height="19"/></clipPath><clipPath id="3b50a5145b"><path d="M 178.386719 137.140625 L 196.386719 137.140625 L 196.386719 155.140625 L 178.386719 155.140625 Z M 178.386719 137.140625 " clip-rule="nonzero"/></clipPath><clipPath id="335042bc3d"><path d="M 187.5 137.140625 C 182.46875 137.140625 178.386719 141.21875 178.386719 146.25 C 178.386719 151.28125 182.46875 155.363281 187.5 155.363281 C 192.53125 155.363281 196.609375 151.28125 196.609375 146.25 C 196.609375 141.21875 192.53125 137.140625 187.5 137.140625 Z M 187.5 137.140625 " clip-rule="nonzero"/></clipPath><clipPath id="df9dbd1232"><path d="M 179.886719 143.550781 L 195.113281 143.550781 L 195.113281 161 L 179.886719 161 Z M 179.886719 143.550781 " clip-rule="nonzero"/></clipPath><clipPath id="02a1b88496"><path d="M 185.886719 143.550781 L 189.113281 143.550781 C 192.429688 143.550781 195.113281 146.238281 195.113281 149.550781 L 195.113281 154.984375 C 195.113281 158.296875 192.429688 160.984375 189.113281 160.984375 L 185.886719 160.984375 C 182.570312 160.984375 179.886719 158.296875 179.886719 154.984375 L 179.886719 149.550781 C 179.886719 146.238281 182.570312 143.550781 185.886719 143.550781 Z M 185.886719 143.550781 " clip-rule="nonzero"/></clipPath><clipPath id="75b27c8ad7"><path d="M 0.886719 0.550781 L 16.113281 0.550781 L 16.113281 18 L 0.886719 18 Z M 0.886719 0.550781 " clip-rule="nonzero"/></clipPath><clipPath id="f1dc56238b"><path d="M 6.886719 0.550781 L 10.113281 0.550781 C 13.429688 0.550781 16.113281 3.238281 16.113281 6.550781 L 16.113281 11.984375 C 16.113281 15.296875 13.429688 17.984375 10.113281 17.984375 L 6.886719 17.984375 C 3.570312 17.984375 0.886719 15.296875 0.886719 11.984375 L 0.886719 6.550781 C 0.886719 3.238281 3.570312 0.550781 6.886719 0.550781 Z M 6.886719 0.550781 " clip-rule="nonzero"/></clipPath><clipPath id="8e24bce6ea"><rect x="0" width="17" y="0" height="18"/></clipPath><clipPath id="a7b194130d"><path d="M 179.886719 143.550781 L 194.886719 143.550781 L 194.886719 160.800781 L 179.886719 160.800781 Z M 179.886719 143.550781 " clip-rule="nonzero"/></clipPath><clipPath id="59f7bee9e7"><path d="M 185.882812 143.550781 L 189.109375 143.550781 C 192.421875 143.550781 195.109375 146.238281 195.109375 149.550781 L 195.109375 154.980469 C 195.109375 158.292969 192.421875 160.976562 189.109375 160.976562 L 185.882812 160.976562 C 182.570312 160.976562 179.886719 158.292969 179.886719 154.980469 L 179.886719 149.550781 C 179.886719 146.238281 182.570312 143.550781 185.882812 143.550781 Z M 185.882812 143.550781 " clip-rule="nonzero"/></clipPath><clipPath id="e505bc379c"><path d="M 179.886719 148.183594 L 195.136719 148.183594 L 195.136719 160.984375 L 179.886719 160.984375 Z M 179.886719 148.183594 " clip-rule="nonzero"/></clipPath><clipPath id="670c48b265"><path d="M 185.886719 148.183594 L 189.113281 148.183594 C 192.429688 148.183594 195.113281 150.871094 195.113281 154.183594 L 195.113281 154.984375 C 195.113281 158.296875 192.429688 160.984375 189.113281 160.984375 L 185.886719 160.984375 C 182.570312 160.984375 179.886719 158.296875 179.886719 154.984375 L 179.886719 154.183594 C 179.886719 150.871094 182.570312 148.183594 185.886719 148.183594 Z M 185.886719 148.183594 " clip-rule="nonzero"/></clipPath><clipPath id="cdc5f3b191"><path d="M 0.886719 0.183594 L 16.121094 0.183594 L 16.121094 12.984375 L 0.886719 12.984375 Z M 0.886719 0.183594 " clip-rule="nonzero"/></clipPath><clipPath id="6b556c7177"><path d="M 6.886719 0.183594 L 10.113281 0.183594 C 13.429688 0.183594 16.113281 2.871094 16.113281 6.183594 L 16.113281 6.984375 C 16.113281 10.296875 13.429688 12.984375 10.113281 12.984375 L 6.886719 12.984375 C 3.570312 12.984375 0.886719 10.296875 0.886719 6.984375 L 0.886719 6.183594 C 0.886719 2.871094 3.570312 0.183594 6.886719 0.183594 Z M 6.886719 0.183594 " clip-rule="nonzero"/></clipPath><clipPath id="3bb4b6b829"><rect x="0" width="17" y="0" height="13"/></clipPath><clipPath id="216e167674"><path d="M 179.886719 148.183594 L 194.886719 148.183594 L 194.886719 160.933594 L 179.886719 160.933594 Z M 179.886719 148.183594 " clip-rule="nonzero"/></clipPath><clipPath id="bcb1dafe2d"><path d="M 185.882812 148.183594 L 189.109375 148.183594 C 192.421875 148.183594 195.109375 150.867188 195.109375 154.179688 L 195.109375 154.980469 C 195.109375 158.292969 192.421875 160.980469 189.109375 160.980469 L 185.882812 160.980469 C 182.570312 160.980469 179.886719 158.292969 179.886719 154.980469 L 179.886719 154.179688 C 179.886719 150.867188 182.570312 148.183594 185.882812 148.183594 Z M 185.882812 148.183594 " clip-rule="nonzero"/></clipPath><clipPath id="3969ff956f"><path d="M 177.941406 186.839844 L 197.058594 186.839844 L 197.058594 205.953125 L 177.941406 205.953125 Z M 177.941406 186.839844 " clip-rule="nonzero"/></clipPath><clipPath id="7697360b82"><path d="M 187.5 186.839844 C 182.222656 186.839844 177.941406 191.117188 177.941406 196.398438 C 177.941406 201.675781 182.222656 205.953125 187.5 205.953125 C 192.777344 205.953125 197.058594 201.675781 197.058594 196.398438 C 197.058594 191.117188 192.777344 186.839844 187.5 186.839844 Z M 187.5 186.839844 " clip-rule="nonzero"/></clipPath><clipPath id="34de738afb"><path d="M 0.941406 0.839844 L 20.058594 0.839844 L 20.058594 19.953125 L 0.941406 19.953125 Z M 0.941406 0.839844 " clip-rule="nonzero"/></clipPath><clipPath id="128402d1eb"><path d="M 10.5 0.839844 C 5.222656 0.839844 0.941406 5.117188 0.941406 10.398438 C 0.941406 15.675781 5.222656 19.953125 10.5 19.953125 C 15.777344 19.953125 20.058594 15.675781 20.058594 10.398438 C 20.058594 5.117188 15.777344 0.839844 10.5 0.839844 Z M 10.5 0.839844 " clip-rule="nonzero"/></clipPath><clipPath id="3d9e3fe15d"><rect x="0" width="21" y="0" height="20"/></clipPath><clipPath id="b44d881666"><path d="M 177.941406 186.839844 L 196.691406 186.839844 L 196.691406 205.589844 L 177.941406 205.589844 Z M 177.941406 186.839844 " clip-rule="nonzero"/></clipPath><clipPath id="b0b478de1a"><path d="M 187.5 186.839844 C 182.222656 186.839844 177.941406 191.117188 177.941406 196.398438 C 177.941406 201.675781 182.222656 205.953125 187.5 205.953125 C 192.777344 205.953125 197.054688 201.675781 197.054688 196.398438 C 197.054688 191.117188 192.777344 186.839844 187.5 186.839844 Z M 187.5 186.839844 " clip-rule="nonzero"/></clipPath><clipPath id="fc2cf625b5"><path d="M 179.460938 188.355469 L 195.539062 188.355469 L 195.539062 204.4375 L 179.460938 204.4375 Z M 179.460938 188.355469 " clip-rule="nonzero"/></clipPath><clipPath id="e67dc1f4a5"><path d="M 187.5 188.355469 C 183.058594 188.355469 179.460938 191.957031 179.460938 196.398438 C 179.460938 200.835938 183.058594 204.4375 187.5 204.4375 C 191.941406 204.4375 195.539062 200.835938 195.539062 196.398438 C 195.539062 191.957031 191.941406 188.355469 187.5 188.355469 Z M 187.5 188.355469 " clip-rule="nonzero"/></clipPath><clipPath id="302a67ce61"><path d="M 0.460938 0.355469 L 16.539062 0.355469 L 16.539062 16.4375 L 0.460938 16.4375 Z M 0.460938 0.355469 " clip-rule="nonzero"/></clipPath><clipPath id="7c0a0fd318"><path d="M 8.5 0.355469 C 4.058594 0.355469 0.460938 3.957031 0.460938 8.398438 C 0.460938 12.835938 4.058594 16.4375 8.5 16.4375 C 12.941406 16.4375 16.539062 12.835938 16.539062 8.398438 C 16.539062 3.957031 12.941406 0.355469 8.5 0.355469 Z M 8.5 0.355469 " clip-rule="nonzero"/></clipPath><clipPath id="80f3041337"><rect x="0" width="17" y="0" height="17"/></clipPath><clipPath id="1db33d6b82"><path d="M 179.460938 188.355469 L 195.210938 188.355469 L 195.210938 204.105469 L 179.460938 204.105469 Z M 179.460938 188.355469 " clip-rule="nonzero"/></clipPath><clipPath id="56d818461f"><path d="M 187.5 188.355469 C 183.058594 188.355469 179.460938 191.957031 179.460938 196.394531 C 179.460938 200.835938 183.058594 204.433594 187.5 204.433594 C 191.9375 204.433594 195.539062 200.835938 195.539062 196.394531 C 195.539062 191.957031 191.9375 188.355469 187.5 188.355469 Z M 187.5 188.355469 " clip-rule="nonzero"/></clipPath></defs><g clip-path="url(#fb4dd9efa2)"><g clip-path="url(#9f829a2c44)"><g transform="matrix(1, 0, 0, 1, 34, 34)"><g clip-path="url(#93dd76c3a9)"><g clip-path="url(#e6bd4b1670)"><g clip-path="url(#eee9b9666e)"><path fill="#fdf7f2" d="M 0.628906 0.628906 L 306.371094 0.628906 L 306.371094 306.371094 L 0.628906 306.371094 Z M 0.628906 0.628906 " fill-opacity="1" fill-rule="nonzero"/></g></g></g></g></g></g><g clip-path="url(#3103fe244b)"><g clip-path="url(#e4ea7f86dd)"><path stroke-linecap="butt" transform="matrix(0.75, 0, 0, 0.75, 34.629981, 34.629977)" fill="none" stroke-linejoin="miter" d="M 203.821496 -0.00142757 C 91.253781 -0.00142757 -0.00143357 91.253787 -0.00143357 203.821502 C -0.00143357 316.389218 91.253781 407.639224 203.821496 407.639224 C 316.389212 407.639224 407.639218 316.389218 407.639218 203.821502 C 407.639218 91.253787 316.389212 -0.00142757 203.821496 -0.00142757 Z M 203.821496 -0.00142757 " stroke="#29321a" stroke-width="14" stroke-opacity="1" stroke-miterlimit="4"/></g></g><g fill="#29321a" fill-opacity="1"><g transform="translate(104.391019, 111.501798)"><g><path d="M 7.5625 -22 C 8.832031 -22.476562 10.078125 -22.570312 11.296875 -22.28125 C 12.515625 -22 13.59375 -21.289062 14.53125 -20.15625 C 15.820312 -18.582031 16.210938 -16.867188 15.703125 -15.015625 C 15.203125 -13.171875 13.789062 -11.296875 11.46875 -9.390625 L 2.4375 -2 L -12.4375 -20.171875 L -3.921875 -27.140625 C -1.773438 -28.898438 0.210938 -29.832031 2.046875 -29.9375 C 3.890625 -30.050781 5.414062 -29.367188 6.625 -27.890625 C 7.363281 -26.992188 7.8125 -26.03125 7.96875 -25 C 8.125 -23.96875 7.988281 -22.96875 7.5625 -22 Z M -6.90625 -20.28125 L -2.796875 -15.28125 L 1.984375 -19.1875 C 3.160156 -20.15625 3.890625 -21.109375 4.171875 -22.046875 C 4.453125 -22.984375 4.257812 -23.859375 3.59375 -24.671875 C 2.914062 -25.503906 2.085938 -25.875 1.109375 -25.78125 C 0.128906 -25.6875 -0.945312 -25.15625 -2.125 -24.1875 Z M 9.09375 -11.875 C 11.707031 -14.007812 12.300781 -15.953125 10.875 -17.703125 C 9.4375 -19.453125 7.410156 -19.257812 4.796875 -17.125 L -0.65625 -12.65625 L 3.640625 -7.40625 Z M 9.09375 -11.875 "/></g></g></g><g fill="#29321a" fill-opacity="1"><g transform="translate(122.2439, 96.392825)"><g><path d="M 12.734375 -6.125 C 10.597656 -5.039062 8.4375 -4.523438 6.25 -4.578125 C 4.070312 -4.628906 2.070312 -5.222656 0.25 -6.359375 C -1.5625 -7.503906 -2.988281 -9.09375 -4.03125 -11.125 C -5.0625 -13.15625 -5.507812 -15.242188 -5.375 -17.390625 C -5.238281 -19.535156 -4.550781 -21.503906 -3.3125 -23.296875 C -2.070312 -25.097656 -0.382812 -26.539062 1.75 -27.625 C 3.882812 -28.71875 6.039062 -29.238281 8.21875 -29.1875 C 10.394531 -29.144531 12.382812 -28.550781 14.1875 -27.40625 C 16 -26.269531 17.429688 -24.675781 18.484375 -22.625 C 19.535156 -20.570312 19.988281 -18.484375 19.84375 -16.359375 C 19.707031 -14.234375 19.019531 -12.269531 17.78125 -10.46875 C 16.550781 -8.664062 14.867188 -7.21875 12.734375 -6.125 Z M 11 -9.53125 C 12.394531 -10.25 13.488281 -11.207031 14.28125 -12.40625 C 15.070312 -13.601562 15.5 -14.925781 15.5625 -16.375 C 15.625 -17.820312 15.296875 -19.242188 14.578125 -20.640625 C 13.867188 -22.035156 12.90625 -23.128906 11.6875 -23.921875 C 10.476562 -24.722656 9.15625 -25.15625 7.71875 -25.21875 C 6.289062 -25.28125 4.878906 -24.953125 3.484375 -24.234375 C 2.085938 -23.523438 0.988281 -22.566406 0.1875 -21.359375 C -0.601562 -20.160156 -1.023438 -18.835938 -1.078125 -17.390625 C -1.140625 -15.941406 -0.816406 -14.519531 -0.109375 -13.125 C 0.609375 -11.726562 1.570312 -10.628906 2.78125 -9.828125 C 3.988281 -9.035156 5.3125 -8.609375 6.75 -8.546875 C 8.1875 -8.492188 9.601562 -8.820312 11 -9.53125 Z M 11 -9.53125 "/></g></g></g><g fill="#29321a" fill-opacity="1"><g transform="translate(145.062946, 84.158426)"><g><path d="M 24.046875 -5.703125 L 20.421875 -20.828125 L 15.890625 -6.515625 L 14 -6.078125 L 3.5625 -16.640625 L 7.109375 -1.6875 L 3.078125 -0.734375 L -2.328125 -23.59375 L 1.15625 -24.421875 L 13.796875 -11.40625 L 19.15625 -28.671875 L 22.625 -29.5 L 28.0625 -6.65625 Z M 24.046875 -5.703125 "/></g></g></g><g fill="#29321a" fill-opacity="1"><g transform="translate(173.988222, 77.41463)"><g><path d="M 19.75 -12.296875 C 21.039062 -11.867188 22.066406 -11.160156 22.828125 -10.171875 C 23.597656 -9.179688 23.988281 -7.945312 24 -6.46875 C 24 -4.4375 23.21875 -2.859375 21.65625 -1.734375 C 20.101562 -0.617188 17.828125 -0.0546875 14.828125 -0.046875 L 3.15625 -0.015625 L 3.078125 -23.5 L 14.078125 -23.53125 C 16.847656 -23.539062 18.984375 -23.003906 20.484375 -21.921875 C 21.984375 -20.847656 22.738281 -19.359375 22.75 -17.453125 C 22.75 -16.296875 22.484375 -15.269531 21.953125 -14.375 C 21.421875 -13.476562 20.6875 -12.785156 19.75 -12.296875 Z M 7.4375 -20.09375 L 7.46875 -13.625 L 13.640625 -13.640625 C 15.160156 -13.648438 16.328125 -13.925781 17.140625 -14.46875 C 17.953125 -15.019531 18.359375 -15.820312 18.359375 -16.875 C 18.359375 -17.945312 17.945312 -18.753906 17.125 -19.296875 C 16.300781 -19.847656 15.128906 -20.117188 13.609375 -20.109375 Z M 14.546875 -3.46875 C 17.921875 -3.488281 19.601562 -4.628906 19.59375 -6.890625 C 19.59375 -9.148438 17.90625 -10.269531 14.53125 -10.25 L 7.484375 -10.234375 L 7.5 -3.453125 Z M 14.546875 -3.46875 "/></g></g></g><g fill="#29321a" fill-opacity="1"><g transform="translate(198.036376, 77.78924)"><g/></g></g><g fill="#29321a" fill-opacity="1"><g transform="translate(205.943202, 78.257535)"><g><path d="M 13.421875 4.03125 C 11.140625 3.40625 9.210938 2.335938 7.640625 0.828125 C 6.078125 -0.679688 5.015625 -2.460938 4.453125 -4.515625 C 3.898438 -6.566406 3.925781 -8.703125 4.53125 -10.921875 C 5.144531 -13.148438 6.222656 -15 7.765625 -16.46875 C 9.316406 -17.945312 11.148438 -18.929688 13.265625 -19.421875 C 15.378906 -19.921875 17.582031 -19.851562 19.875 -19.21875 C 21.71875 -18.707031 23.316406 -17.921875 24.671875 -16.859375 C 26.023438 -15.796875 27.0625 -14.5 27.78125 -12.96875 L 24.375 -11.171875 C 23.226562 -13.398438 21.453125 -14.84375 19.046875 -15.5 C 17.503906 -15.925781 16.023438 -15.96875 14.609375 -15.625 C 13.191406 -15.28125 11.972656 -14.597656 10.953125 -13.578125 C 9.929688 -12.566406 9.207031 -11.289062 8.78125 -9.75 C 8.363281 -8.226562 8.332031 -6.769531 8.6875 -5.375 C 9.039062 -3.976562 9.738281 -2.769531 10.78125 -1.75 C 11.820312 -0.726562 13.113281 -0.00390625 14.65625 0.421875 C 17.0625 1.078125 19.328125 0.738281 21.453125 -0.59375 L 23.453125 2.734375 C 22.054688 3.679688 20.5 4.257812 18.78125 4.46875 C 17.0625 4.6875 15.273438 4.539062 13.421875 4.03125 Z M 13.421875 4.03125 "/></g></g></g><g fill="#29321a" fill-opacity="1"><g transform="translate(227.922455, 84.697026)"><g><path d="M 12.21875 -20.3125 L 16.21875 -18.578125 L 6.890625 2.984375 L 2.890625 1.25 Z M 12.21875 -20.3125 "/></g></g></g><g fill="#29321a" fill-opacity="1"><g transform="translate(236.728089, 88.102366)"><g><path d="M 16.859375 -13.046875 L 10.15625 -16.984375 L 12.015625 -20.171875 L 29.1875 -10.09375 L 27.328125 -6.90625 L 20.625 -10.84375 L 10.59375 6.21875 L 6.828125 4.015625 Z M 16.859375 -13.046875 "/></g></g></g><g fill="#29321a" fill-opacity="1"><g transform="translate(252.766182, 97.256727)"><g><path d="M 15.484375 2.21875 L 10.15625 8.546875 L 6.828125 5.75 L 12.125 -0.53125 L 14.890625 -18.15625 L 18.453125 -15.15625 L 16.34375 -1.984375 L 29.046875 -6.25 L 32.3125 -3.5 Z M 15.484375 2.21875 "/></g></g></g><g fill="#29321a" fill-opacity="1"><g transform="translate(68.230082, 251.087232)"><g><path d="M 26.640625 -2.84375 C 27.796875 -1.164062 28.53125 0.476562 28.84375 2.09375 C 29.15625 3.71875 29.023438 5.21875 28.453125 6.59375 C 27.878906 7.976562 26.882812 9.160156 25.46875 10.140625 C 24.0625 11.117188 22.609375 11.632812 21.109375 11.6875 C 19.617188 11.738281 18.164062 11.335938 16.75 10.484375 C 15.332031 9.628906 14.046875 8.363281 12.890625 6.6875 L 9.875 2.328125 L 4.296875 6.1875 L 1.796875 2.59375 L 21.125 -10.796875 Z M 15.796875 4.40625 C 16.890625 5.96875 18.046875 6.921875 19.265625 7.265625 C 20.492188 7.617188 21.722656 7.367188 22.953125 6.515625 C 24.191406 5.660156 24.859375 4.597656 24.953125 3.328125 C 25.054688 2.066406 24.5625 0.65625 23.46875 -0.90625 L 20.578125 -5.09375 L 12.90625 0.21875 Z M 15.796875 4.40625 "/></g></g></g><g fill="#29321a" fill-opacity="1"><g transform="translate(83.480647, 272.934625)"><g><path d="M 33.640625 -0.484375 L 17.4375 16.5625 L 14.28125 13.5625 L 21.21875 6.25 L 12.390625 -2.125 L 5.453125 5.1875 L 2.28125 2.171875 L 18.484375 -14.875 L 21.65625 -11.859375 L 14.96875 -4.828125 L 23.796875 3.546875 L 30.484375 -3.484375 Z M 33.640625 -0.484375 "/></g></g></g><g fill="#29321a" fill-opacity="1"><g transform="translate(105.114523, 293.194922)"><g><path d="M 11.96875 7.546875 C 9.90625 6.316406 8.3125 4.757812 7.1875 2.875 C 6.070312 1 5.519531 -1.007812 5.53125 -3.15625 C 5.550781 -5.300781 6.144531 -7.351562 7.3125 -9.3125 C 8.488281 -11.28125 10.019531 -12.773438 11.90625 -13.796875 C 13.789062 -14.828125 15.828125 -15.289062 18.015625 -15.1875 C 20.203125 -15.082031 22.328125 -14.414062 24.390625 -13.1875 C 26.441406 -11.957031 28.023438 -10.40625 29.140625 -8.53125 C 30.253906 -6.65625 30.8125 -4.644531 30.8125 -2.5 C 30.8125 -0.363281 30.21875 1.695312 29.03125 3.6875 C 27.851562 5.65625 26.316406 7.144531 24.421875 8.15625 C 22.535156 9.175781 20.5 9.632812 18.3125 9.53125 C 16.132812 9.4375 14.019531 8.773438 11.96875 7.546875 Z M 13.9375 4.265625 C 15.28125 5.066406 16.664062 5.484375 18.09375 5.515625 C 19.53125 5.554688 20.878906 5.21875 22.140625 4.5 C 23.410156 3.78125 24.445312 2.753906 25.25 1.421875 C 26.0625 0.0664062 26.484375 -1.332031 26.515625 -2.78125 C 26.546875 -4.238281 26.207031 -5.585938 25.5 -6.828125 C 24.789062 -8.078125 23.765625 -9.101562 22.421875 -9.90625 C 21.078125 -10.707031 19.679688 -11.128906 18.234375 -11.171875 C 16.796875 -11.210938 15.445312 -10.875 14.1875 -10.15625 C 12.925781 -9.445312 11.890625 -8.414062 11.078125 -7.0625 C 10.273438 -5.726562 9.851562 -4.332031 9.8125 -2.875 C 9.78125 -1.414062 10.125 -0.0625 10.84375 1.1875 C 11.5625 2.4375 12.59375 3.460938 13.9375 4.265625 Z M 13.9375 4.265625 "/></g></g></g><g fill="#29321a" fill-opacity="1"><g transform="translate(131.455744, 308.272822)"><g><path d="M 14.1875 -15.953125 L 6.859375 -18.59375 L 8.109375 -22.078125 L 26.890625 -15.296875 L 25.640625 -11.8125 L 18.296875 -14.46875 L 11.5625 4.171875 L 7.453125 2.6875 Z M 14.1875 -15.953125 "/></g></g></g><g fill="#29321a" fill-opacity="1"><g transform="translate(152.42358, 316.039882)"><g><path d="M 13.921875 2.5 C 11.554688 2.125 9.5 1.28125 7.75 -0.03125 C 6 -1.351562 4.726562 -3.007812 3.9375 -5 C 3.144531 -7 2.921875 -9.125 3.265625 -11.375 C 3.617188 -13.644531 4.472656 -15.609375 5.828125 -17.265625 C 7.191406 -18.921875 8.90625 -20.113281 10.96875 -20.84375 C 13.039062 -21.582031 15.257812 -21.765625 17.625 -21.390625 C 20 -21.023438 22.054688 -20.179688 23.796875 -18.859375 C 25.535156 -17.535156 26.804688 -15.878906 27.609375 -13.890625 C 28.421875 -11.910156 28.648438 -9.78125 28.296875 -7.5 C 27.941406 -5.226562 27.078125 -3.265625 25.703125 -1.609375 C 24.335938 0.0351562 22.625 1.222656 20.5625 1.953125 C 18.507812 2.679688 16.296875 2.863281 13.921875 2.5 Z M 14.5 -1.28125 C 16.0625 -1.039062 17.515625 -1.171875 18.859375 -1.671875 C 20.203125 -2.179688 21.320312 -3.003906 22.21875 -4.140625 C 23.125 -5.285156 23.695312 -6.628906 23.9375 -8.171875 C 24.175781 -9.722656 24.039062 -11.175781 23.53125 -12.53125 C 23.019531 -13.894531 22.195312 -15.019531 21.0625 -15.90625 C 19.9375 -16.800781 18.59375 -17.367188 17.03125 -17.609375 C 15.488281 -17.847656 14.046875 -17.710938 12.703125 -17.203125 C 11.359375 -16.703125 10.234375 -15.878906 9.328125 -14.734375 C 8.421875 -13.597656 7.847656 -12.253906 7.609375 -10.703125 C 7.367188 -9.160156 7.503906 -7.707031 8.015625 -6.34375 C 8.535156 -4.988281 9.359375 -3.863281 10.484375 -2.96875 C 11.617188 -2.082031 12.957031 -1.519531 14.5 -1.28125 Z M 14.5 -1.28125 "/></g></g></g><g fill="#29321a" fill-opacity="1"><g transform="translate(182.033655, 319.796245)"><g/></g></g><g fill="#29321a" fill-opacity="1"><g transform="translate(192.829128, 320.306023)"><g><path d="M 18.015625 -14.765625 C 19.359375 -14.515625 20.472656 -13.941406 21.359375 -13.046875 C 22.242188 -12.160156 22.785156 -10.984375 22.984375 -9.515625 C 23.253906 -7.503906 22.6875 -5.84375 21.28125 -4.53125 C 19.875 -3.226562 17.6875 -2.378906 14.71875 -1.984375 L 3.125 -0.421875 L -0.015625 -23.734375 L 10.90625 -25.203125 C 13.664062 -25.566406 15.859375 -25.304688 17.484375 -24.421875 C 19.117188 -23.546875 20.066406 -22.171875 20.328125 -20.296875 C 20.472656 -19.140625 20.335938 -18.082031 19.921875 -17.125 C 19.515625 -16.164062 18.878906 -15.378906 18.015625 -14.765625 Z M 4.796875 -20.921875 L 5.65625 -14.484375 L 11.765625 -15.3125 C 13.273438 -15.507812 14.394531 -15.929688 15.125 -16.578125 C 15.863281 -17.234375 16.160156 -18.082031 16.015625 -19.125 C 15.878906 -20.1875 15.367188 -20.9375 14.484375 -21.375 C 13.609375 -21.820312 12.414062 -21.945312 10.90625 -21.75 Z M 14 -5.328125 C 17.351562 -5.785156 18.878906 -7.132812 18.578125 -9.375 C 18.273438 -11.625 16.445312 -12.519531 13.09375 -12.0625 L 6.109375 -11.125 L 7.015625 -4.390625 Z M 14 -5.328125 "/></g></g></g><g fill="#29321a" fill-opacity="1"><g transform="translate(220.490932, 316.476997)"><g><path d="M 13.40625 -4.5 C 11.15625 -3.6875 8.945312 -3.4375 6.78125 -3.75 C 4.613281 -4.070312 2.695312 -4.914062 1.03125 -6.28125 C -0.625 -7.644531 -1.835938 -9.398438 -2.609375 -11.546875 C -3.390625 -13.703125 -3.578125 -15.835938 -3.171875 -17.953125 C -2.773438 -20.066406 -1.847656 -21.9375 -0.390625 -23.5625 C 1.066406 -25.195312 2.921875 -26.421875 5.171875 -27.234375 C 7.421875 -28.054688 9.628906 -28.304688 11.796875 -27.984375 C 13.960938 -27.671875 15.875 -26.835938 17.53125 -25.484375 C 19.1875 -24.128906 20.410156 -22.363281 21.203125 -20.1875 C 21.984375 -18.019531 22.171875 -15.882812 21.765625 -13.78125 C 21.359375 -11.675781 20.425781 -9.804688 18.96875 -8.171875 C 17.507812 -6.546875 15.65625 -5.320312 13.40625 -4.5 Z M 12.109375 -8.109375 C 13.585938 -8.648438 14.789062 -9.460938 15.71875 -10.546875 C 16.65625 -11.640625 17.242188 -12.898438 17.484375 -14.328125 C 17.734375 -15.765625 17.59375 -17.21875 17.0625 -18.6875 C 16.519531 -20.164062 15.695312 -21.375 14.59375 -22.3125 C 13.488281 -23.257812 12.226562 -23.847656 10.8125 -24.078125 C 9.40625 -24.316406 7.960938 -24.164062 6.484375 -23.625 C 5.015625 -23.09375 3.804688 -22.28125 2.859375 -21.1875 C 1.921875 -20.101562 1.328125 -18.84375 1.078125 -17.40625 C 0.835938 -15.976562 0.988281 -14.523438 1.53125 -13.046875 C 2.0625 -11.578125 2.878906 -10.367188 3.984375 -9.421875 C 5.085938 -8.484375 6.347656 -7.894531 7.765625 -7.65625 C 9.191406 -7.425781 10.640625 -7.578125 12.109375 -8.109375 Z M 12.109375 -8.109375 "/></g></g></g><g fill="#29321a" fill-opacity="1"><g transform="translate(249.314414, 305.736682)"><g><path d="M 12.0625 -7.375 C 10.039062 -6.082031 7.941406 -5.347656 5.765625 -5.171875 C 3.585938 -5.003906 1.539062 -5.398438 -0.375 -6.359375 C -2.300781 -7.316406 -3.878906 -8.753906 -5.109375 -10.671875 C -6.347656 -12.597656 -7.007812 -14.632812 -7.09375 -16.78125 C -7.1875 -18.9375 -6.703125 -20.972656 -5.640625 -22.890625 C -4.578125 -24.804688 -3.035156 -26.410156 -1.015625 -27.703125 C 0.992188 -29.003906 3.085938 -29.738281 5.265625 -29.90625 C 7.441406 -30.082031 9.488281 -29.691406 11.40625 -28.734375 C 13.332031 -27.785156 14.925781 -26.335938 16.1875 -24.390625 C 17.425781 -22.453125 18.082031 -20.414062 18.15625 -18.28125 C 18.226562 -16.144531 17.734375 -14.117188 16.671875 -12.203125 C 15.609375 -10.285156 14.070312 -8.675781 12.0625 -7.375 Z M 10 -10.59375 C 11.320312 -11.445312 12.316406 -12.507812 12.984375 -13.78125 C 13.648438 -15.050781 13.941406 -16.410156 13.859375 -17.859375 C 13.773438 -19.316406 13.3125 -20.703125 12.46875 -22.015625 C 11.613281 -23.335938 10.539062 -24.332031 9.25 -25 C 7.957031 -25.675781 6.597656 -25.972656 5.171875 -25.890625 C 3.742188 -25.804688 2.367188 -25.335938 1.046875 -24.484375 C -0.265625 -23.640625 -1.257812 -22.578125 -1.9375 -21.296875 C -2.613281 -20.023438 -2.910156 -18.664062 -2.828125 -17.21875 C -2.742188 -15.769531 -2.273438 -14.382812 -1.421875 -13.0625 C -0.578125 -11.75 0.488281 -10.753906 1.78125 -10.078125 C 3.070312 -9.398438 4.4375 -9.101562 5.875 -9.1875 C 7.3125 -9.28125 8.6875 -9.75 10 -10.59375 Z M 10 -10.59375 "/></g></g></g><g fill="#29321a" fill-opacity="1"><g transform="translate(274.504894, 288.806075)"><g><path d="M -8 -19.78125 L -13.625 -14.390625 L -16.1875 -17.0625 L -1.78125 -30.890625 L 0.78125 -28.21875 L -4.84375 -22.8125 L 8.875 -8.515625 L 5.71875 -5.484375 Z M -8 -19.78125 "/></g></g></g><g fill="#29321a" fill-opacity="1"><g transform="translate(290.686046, 273.45494)"><g><path d="M -5.25 -33.21875 L 13.921875 -19.609375 L 11.390625 -16.046875 L 3.171875 -21.875 L -3.859375 -11.96875 L 4.359375 -6.140625 L 1.828125 -2.578125 L -17.34375 -16.1875 L -14.8125 -19.75 L -6.90625 -14.140625 L 0.125 -24.046875 L -7.78125 -29.65625 Z M -5.25 -33.21875 "/></g></g></g><g clip-path="url(#70cb96e780)"><g clip-path="url(#bcd3ece6ad)"><g clip-path="url(#529099c9e3)"><g transform="matrix(1, 0, 0, 1, 138, 99)"><g clip-path="url(#43ec368318)"><g clip-path="url(#f10b374df0)"><g clip-path="url(#391c44ed42)"><g clip-path="url(#fd2fea0b6f)"><path fill="#fdf7f2" d="M 24.4375 -11.140625 L 110.003906 24.300781 L 74.5625 109.863281 L -11.003906 74.421875 Z M 24.4375 -11.140625 " fill-opacity="1" fill-rule="nonzero"/></g></g></g></g></g></g></g></g><g clip-path="url(#84e1e5bc32)"><g clip-path="url(#547ff491b8)"><g clip-path="url(#ba0b404869)"><g clip-path="url(#4e25c8d322)"><path stroke-linecap="butt" transform="matrix(0.69291, 0.287013, -0.287013, 0.69291, 162.438627, 87.858268)" fill="none" stroke-linejoin="miter" d="M 94.474987 7.0734 L 116.414326 29.008772 C 120.940117 33.538282 123.483367 39.678232 123.485998 46.081298 L 123.482969 77.404281 C 123.485599 83.807346 120.938293 89.947464 116.415587 94.476074 L 94.47341 116.412594 C 89.945893 120.943197 83.805943 123.486447 77.405696 123.482273 L 46.079894 123.486049 C 39.674835 123.483868 33.536711 120.941373 29.010919 116.411862 L 7.071581 94.47649 C 2.54579 89.94698 0.00253955 83.807029 -0.0000907149 77.403964 L 0.0029378 46.080981 C 0.000307537 39.677915 2.542802 33.539791 7.07032 29.009188 L 29.010503 7.067856 C 33.535202 2.544058 39.679964 -0.00118545 46.078218 -0.00182257 L 77.406013 -0.000787196 C 83.804266 -0.00142432 89.949196 2.543889 94.474987 7.0734 Z M 94.474987 7.0734 " stroke="#29321a" stroke-width="12" stroke-opacity="1" stroke-miterlimit="4"/></g></g></g></g><path stroke-linecap="round" transform="matrix(0.526002, 0.534623, -0.534623, 0.526002, 156.474282, 114.153237)" fill="none" stroke-linejoin="miter" d="M 1.998995 1.999026 L 120.034506 2.000804 " stroke="#29321a" stroke-width="4" stroke-opacity="1" stroke-miterlimit="4"/><path stroke-linecap="round" transform="matrix(0.526002, -0.534623, 0.534623, 0.526002, 154.335786, 179.393983)" fill="none" stroke-linejoin="miter" d="M 2.001649 1.998368 L 120.033447 2.000242 " stroke="#29321a" stroke-width="4" stroke-opacity="1" stroke-miterlimit="4"/><path stroke-linecap="round" transform="matrix(0.75, 0, 0, 0.75, 141.113623, 146.861196)" fill="none" stroke-linejoin="miter" d="M 1.999544 1.997572 L 122.270385 1.997572 " stroke="#29321a" stroke-width="4" stroke-opacity="1" stroke-miterlimit="4"/><path stroke-linecap="round" transform="matrix(-0.000074944, 0.75, -0.75, -0.000074944, 189.003023, 99.709469)" fill="none" stroke-linejoin="miter" d="M 2.002157 1.998623 L 85.507371 2.000695 " stroke="#29321a" stroke-width="4" stroke-opacity="1" stroke-miterlimit="4"/><g clip-path="url(#fccb82a0ab)"><g clip-path="url(#7cafd6497f)"><g transform="matrix(1, 0, 0, 1, 149, 165)"><g clip-path="url(#d388599310)"><g clip-path="url(#f75f877c7e)"><g clip-path="url(#fc89bc2f04)"><path fill="#fdf7f2" d="M 0.203125 0.335938 L 76.796875 0.335938 L 76.796875 94.582031 L 0.203125 94.582031 Z M 0.203125 0.335938 " fill-opacity="1" fill-rule="nonzero"/></g></g></g></g></g></g><g clip-path="url(#0d207f06bb)"><g clip-path="url(#c46b64b098)"><path stroke-linecap="butt" transform="matrix(0.75, 0, 0, 0.75, 149.203178, 165.342923)" fill="none" stroke-linejoin="miter" d="M 7.99993 0.00110301 L 94.109311 0.00110301 C 98.525978 0.00110301 102.109311 3.579228 102.109311 8.001104 L 102.109311 117.532361 C 102.109311 121.954236 98.525978 125.532361 94.109311 125.532361 L 7.99993 125.532361 C 3.583263 125.532361 -0.0000705364 121.954236 -0.0000705364 117.532361 L -0.0000705364 8.001104 C -0.0000705364 3.579228 3.583263 0.00110301 7.99993 0.00110301 Z M 7.99993 0.00110301 " stroke="#29321a" stroke-width="12" stroke-opacity="1" stroke-miterlimit="4"/></g></g><g clip-path="url(#0c5010a664)"><g clip-path="url(#7c1f344139)"><g transform="matrix(1, 0, 0, 1, 155, 212)"><g clip-path="url(#b696a6989d)"><g clip-path="url(#a7d9258323)"><g clip-path="url(#c324a7f975)"><path fill="#fdf7f2" d="M 0.40625 0.421875 L 64.527344 0.421875 L 64.527344 39.785156 L 0.40625 39.785156 Z M 0.40625 0.421875 " fill-opacity="1" fill-rule="nonzero"/></g></g></g></g></g></g><g clip-path="url(#8ac2c1c69d)"><g clip-path="url(#29c6674b4c)"><path stroke-linecap="butt" transform="matrix(0.75, 0, 0, 0.75, 155.405224, 212.420801)" fill="none" stroke-linejoin="miter" d="M 8.001369 0.00143167 L 77.579498 0.00143167 C 81.996165 0.00143167 85.579499 3.579557 85.579499 8.001432 L 85.579499 44.480601 C 85.579499 48.902477 81.996165 52.480602 77.579498 52.480602 L 8.001369 52.480602 C 3.579493 52.480602 0.00136814 48.902477 0.00136814 44.480601 L 0.00136814 8.001432 C 0.00136814 3.579557 3.579493 0.00143167 8.001369 0.00143167 Z M 8.001369 0.00143167 " stroke="#29321a" stroke-width="12" stroke-opacity="1" stroke-miterlimit="4"/></g></g><g clip-path="url(#c80fcbf7a2)"><g clip-path="url(#a3b9504d29)"><g transform="matrix(1, 0, 0, 1, 184, 155)"><g clip-path="url(#0378170aae)"><g clip-path="url(#84f4ba3b6f)"><g clip-path="url(#4826b4bd88)"><path fill="#29321a" d="M 0.324219 0.363281 L 6.675781 0.363281 L 6.675781 13.617188 L 0.324219 13.617188 Z M 0.324219 0.363281 " fill-opacity="1" fill-rule="nonzero"/></g></g></g></g></g></g><g clip-path="url(#da1bfe85d7)"><g clip-path="url(#4e54293906)"><g transform="matrix(1, 0, 0, 1, 178, 137)"><g clip-path="url(#5f03eb6970)"><g clip-path="url(#fc5d3247da)"><g clip-path="url(#021e6a2a53)"><path fill="#29321a" d="M 0.386719 0.140625 L 18.613281 0.140625 L 18.613281 18.363281 L 0.386719 18.363281 Z M 0.386719 0.140625 " fill-opacity="1" fill-rule="nonzero"/></g></g></g></g></g></g><g clip-path="url(#3b50a5145b)"><g clip-path="url(#335042bc3d)"><path stroke-linecap="butt" transform="matrix(0.75, 0, 0, 0.75, 178.387946, 137.139101)" fill="none" stroke-linejoin="miter" d="M 12.149406 0.00203147 C 5.441072 0.00203147 -0.00163685 5.439532 -0.00163685 12.147866 C -0.00163685 18.856199 5.441072 24.298908 12.149406 24.298908 C 18.857739 24.298908 24.29524 18.856199 24.29524 12.147866 C 24.29524 5.439532 18.857739 0.00203147 12.149406 0.00203147 Z M 12.149406 0.00203147 " stroke="#29321a" stroke-width="8" stroke-opacity="1" stroke-miterlimit="4"/></g></g><g clip-path="url(#df9dbd1232)"><g clip-path="url(#02a1b88496)"><g transform="matrix(1, 0, 0, 1, 179, 143)"><g clip-path="url(#8e24bce6ea)"><g clip-path="url(#75b27c8ad7)"><g clip-path="url(#f1dc56238b)"><path fill="#29321a" d="M 0.886719 0.550781 L 16.113281 0.550781 L 16.113281 17.980469 L 0.886719 17.980469 Z M 0.886719 0.550781 " fill-opacity="1" fill-rule="nonzero"/></g></g></g></g></g></g><g clip-path="url(#a7b194130d)"><g clip-path="url(#59f7bee9e7)"><path stroke-linecap="butt" transform="matrix(0.75, 0, 0, 0.75, 179.885661, 143.551543)" fill="none" stroke-linejoin="miter" d="M 7.996202 -0.00101616 L 12.298285 -0.00101616 C 16.714952 -0.00101616 20.298286 3.582317 20.298286 7.998984 L 20.298286 15.238568 C 20.298286 19.655235 16.714952 23.23336 12.298285 23.23336 L 7.996202 23.23336 C 3.579535 23.23336 0.00140968 19.655235 0.00140968 15.238568 L 0.00140968 7.998984 C 0.00140968 3.582317 3.579535 -0.00101616 7.996202 -0.00101616 Z M 7.996202 -0.00101616 " stroke="#fdf7f2" stroke-width="2" stroke-opacity="1" stroke-miterlimit="4"/></g></g><g clip-path="url(#e505bc379c)"><g clip-path="url(#670c48b265)"><g transform="matrix(1, 0, 0, 1, 179, 148)"><g clip-path="url(#3bb4b6b829)"><g clip-path="url(#cdc5f3b191)"><g clip-path="url(#6b556c7177)"><path fill="#29321a" d="M 0.886719 0.183594 L 16.136719 0.183594 L 16.136719 12.984375 L 0.886719 12.984375 Z M 0.886719 0.183594 " fill-opacity="1" fill-rule="nonzero"/></g></g></g></g></g></g><g clip-path="url(#216e167674)"><g clip-path="url(#bcb1dafe2d)"><path stroke-linecap="butt" transform="matrix(0.75, 0, 0, 0.75, 179.885661, 148.183394)" fill="none" stroke-linejoin="miter" d="M 7.996202 0.000265974 L 12.298285 0.000265974 C 16.714952 0.000265974 20.298286 3.578391 20.298286 7.995058 L 20.298286 9.062767 C 20.298286 13.479434 16.714952 17.062767 12.298285 17.062767 L 7.996202 17.062767 C 3.579535 17.062767 0.00140968 13.479434 0.00140968 9.062767 L 0.00140968 7.995058 C 0.00140968 3.578391 3.579535 0.000265974 7.996202 0.000265974 Z M 7.996202 0.000265974 " stroke="#29321a" stroke-width="2" stroke-opacity="1" stroke-miterlimit="4"/></g></g><g clip-path="url(#3969ff956f)"><g clip-path="url(#7697360b82)"><g transform="matrix(1, 0, 0, 1, 177, 186)"><g clip-path="url(#3d9e3fe15d)"><g clip-path="url(#34de738afb)"><g clip-path="url(#128402d1eb)"><path fill="#29321a" d="M 0.941406 0.839844 L 20.058594 0.839844 L 20.058594 19.953125 L 0.941406 19.953125 Z M 0.941406 0.839844 " fill-opacity="1" fill-rule="nonzero"/></g></g></g></g></g></g><g clip-path="url(#b44d881666)"><g clip-path="url(#b0b478de1a)"><path stroke-linecap="butt" transform="matrix(0.75, 0, 0, 0.75, 177.943104, 186.840237)" fill="none" stroke-linejoin="miter" d="M 12.742529 -0.000524774 C 5.70607 -0.000524774 -0.00226369 5.702601 -0.00226369 12.744268 C -0.00226369 19.780727 5.70607 25.483852 12.742529 25.483852 C 19.778988 25.483852 25.482113 19.780727 25.482113 12.744268 C 25.482113 5.702601 19.778988 -0.000524774 12.742529 -0.000524774 Z M 12.742529 -0.000524774 " stroke="#29321a" stroke-width="4" stroke-opacity="1" stroke-miterlimit="4"/></g></g><g clip-path="url(#fc2cf625b5)"><g clip-path="url(#e67dc1f4a5)"><g transform="matrix(1, 0, 0, 1, 179, 188)"><g clip-path="url(#80f3041337)"><g clip-path="url(#302a67ce61)"><g clip-path="url(#7c0a0fd318)"><path fill="#29321a" d="M 0.460938 0.355469 L 16.539062 0.355469 L 16.539062 16.4375 L 0.460938 16.4375 Z M 0.460938 0.355469 " fill-opacity="1" fill-rule="nonzero"/></g></g></g></g></g></g><g clip-path="url(#1db33d6b82)"><g clip-path="url(#56d818461f)"><path stroke-linecap="butt" transform="matrix(0.75, 0, 0, 0.75, 179.459597, 188.356744)" fill="none" stroke-linejoin="miter" d="M 10.720538 -0.00170091 C 4.798663 -0.00170091 0.00178771 4.800383 0.00178771 10.71705 C 0.00178771 16.638925 4.798663 21.4358 10.720538 21.4358 C 16.637205 21.4358 21.439289 16.638925 21.439289 10.71705 C 21.439289 4.800383 16.637205 -0.00170091 10.720538 -0.00170091 Z M 10.720538 -0.00170091 " stroke="#fdf7f2" stroke-width="4" stroke-opacity="1" stroke-miterlimit="4"/></g></g></svg>